<?xml version="1.0" encoding="utf-8"?>
<!-- Generator: Adobe Illustrator 26.0.3, SVG Export Plug-In . SVG Version: 6.00 Build 0)  -->
<svg version="1.1" id="Warstwa_1" xmlns="http://www.w3.org/2000/svg" xmlns:xlink="http://www.w3.org/1999/xlink" x="0px" y="0px"
	 viewBox="0 0 1280 255" style="enable-background:new 0 0 1280 255;" xml:space="preserve">
<style type="text/css">
	.st0{display:none;fill:#3A3A3A;}
	.st1{display:none;}
	.st2{display:inline;fill:#B85557;}
	.st3{fill:#C9C8C8;}
</style>
<rect x="0" y="-190" class="st0" width="1280" height="640"/>
<g id="Border" class="st1">
	<rect x="0" y="-190" class="st2" width="80" height="640"/>
	<rect x="1200" y="-190" class="st2" width="80" height="640"/>
	<rect x="80" y="-190" class="st2" width="1120" height="80"/>
	<rect x="80" y="370" class="st2" width="1120" height="80"/>
</g>
<g>
	<path class="st3" d="M305.4,106.6c4.3,4.3,11,7.9,19.2,7.9c5.3,0,8.5-2.2,8.5-5.1c0-3.4-3.9-4.8-10.3-6.1
		c-9.9-2-23.8-4.5-23.8-18.7c0-10.1,8.5-18.8,23.9-18.8c9.6,0,18,2.9,24.4,8.4L339,85.2c-5-4.1-11.6-6.2-16.9-6.2
		c-5.1,0-7.1,2.1-7.1,4.7c0,3.1,3.7,4.2,10.4,5.5c9.9,2.1,23.6,5,23.6,18.5c0,12.1-8.9,20.1-25,20.1c-12.1,0-20.6-3.8-26.6-9.5
		L305.4,106.6z"/>
	<path class="st3" d="M354.8,69.8c0-4.4,3.5-7.9,7.9-7.9s7.9,3.5,7.9,7.9s-3.5,7.9-7.9,7.9C358.3,77.7,354.8,74.2,354.8,69.8z
		 M355.7,126.7V83.2h13.9v43.5H355.7z"/>
	<path class="st3" d="M434.5,126.7v-26.5c0-3.3-1.6-5.9-5.8-5.9c-3.8,0-6.5,2.4-7.8,4.2v28.1H407v-26.5c0-3.3-1.5-5.9-5.8-5.9
		c-3.7,0-6.3,2.4-7.7,4.2v28.1h-13.9V83.2h13.9v5.3c1.9-2.5,7.5-6.4,14.3-6.4c6.2,0,10.5,2.6,12.3,7.7c2.5-3.8,8.2-7.7,15-7.7
		c8,0,13,4.1,13,13v31.5L434.5,126.7L434.5,126.7z"/>
	<path class="st3" d="M472.3,143.2h-13.9v-60h13.9v5c3.4-4.1,7.9-6.1,12.9-6.1c10.9,0,19.1,8.1,19.1,22.8c0,14.8-8.2,22.9-19.1,22.9
		c-4.9,0-9.3-1.9-12.9-6.2V143.2z M480.6,94.4c-3,0-6.6,1.6-8.3,4v13.2c1.7,2.2,5.3,4,8.3,4c5.4,0,9.5-4,9.5-10.6
		C490.1,98.4,486,94.4,480.6,94.4z"/>
	<path class="st3" d="M511.5,126.7v-60h13.9v60H511.5z"/>
	<path class="st3" d="M555.7,82.1c12.9,0,22.2,9.5,22.2,24.2v3h-31c0.8,4,4.6,7.7,11.1,7.7c3.9,0,8.2-1.5,10.6-3.7l5.8,8.6
		c-4.3,3.9-11.5,5.8-18.2,5.8c-13.4,0-23.8-8.7-23.8-22.9C532.6,92.3,542.1,82.1,555.7,82.1z M546.8,100.3h17.9
		c-0.4-3.1-2.6-7.5-9-7.5C549.7,92.8,547.3,97.2,546.8,100.3z"/>
	<path class="st3" d="M608.2,66.6h15.8v35.2c0,7.1,3.8,12.2,12.2,12.2c8.3,0,12.1-5.1,12.1-12.2V66.6h15.8v35.6
		c0,14.9-8.6,25.5-27.8,25.5s-27.9-10.6-27.9-25.4V66.6z"/>
	<path class="st3" d="M688.2,143.2h-13.9v-60h13.9v5c3.4-4.1,7.9-6.1,12.9-6.1c10.9,0,19.1,8.1,19.1,22.8c0,14.8-8.2,22.9-19.1,22.9
		c-4.9,0-9.3-1.9-12.9-6.2V143.2z M696.5,94.4c-3,0-6.6,1.6-8.3,4v13.2c1.7,2.2,5.3,4,8.3,4c5.4,0,9.5-4,9.5-10.6
		C706,98.4,701.9,94.4,696.5,94.4z"/>
	<path class="st3" d="M727.4,126.7v-60h13.9v60H727.4z"/>
	<path class="st3" d="M748.5,104.9c0-12.2,8.9-22.8,23.7-22.8c14.9,0,23.8,10.5,23.8,22.8s-8.8,22.9-23.8,22.9
		C757.4,127.8,748.5,117.1,748.5,104.9z M781.7,104.9c0-5.8-3.4-10.5-9.5-10.5c-6,0-9.4,4.8-9.4,10.5c0,5.9,3.3,10.6,9.4,10.6
		C778.3,115.5,781.7,110.7,781.7,104.9z"/>
	<path class="st3" d="M828.9,126.7v-4.3c-2.7,3.2-7.9,5.4-13.5,5.4c-6.7,0-14.9-4.5-14.9-14.3c0-10.5,8.3-13.7,14.9-13.7
		c5.8,0,10.9,1.8,13.5,5v-5.5c0-3.8-3.2-6.3-8.8-6.3c-4.3,0-8.8,1.6-12.3,4.6l-4.9-8.7c5.6-4.8,13-6.8,19.7-6.8
		c10.4,0,20.2,3.9,20.2,17.4v27.2H828.9z M828.9,111.6c-1.4-2-4.7-3.1-7.7-3.1c-3.7,0-6.9,1.6-6.9,5s3.2,5,6.9,5
		c3.1,0,6.3-1.1,7.7-3.1V111.6z"/>
	<path class="st3" d="M882,126.7v-5c-3.6,4.1-8,6.1-12.9,6.1c-10.7,0-19.3-8.1-19.3-22.9c0-14.2,8.4-22.8,19.3-22.8
		c4.8,0,9.4,1.9,12.9,6.2V66.6h13.8v60H882z M882,98.2c-1.8-2.3-5.4-3.9-8.4-3.9c-5.5,0-9.5,4-9.5,10.5s4,10.6,9.5,10.6
		c3,0,6.6-1.6,8.4-4V98.2z"/>
	<path class="st3" d="M926.2,82.1c12.9,0,22.2,9.5,22.2,24.2v3h-31c0.8,4,4.6,7.7,11.1,7.7c3.9,0,8.2-1.5,10.6-3.7l5.8,8.6
		c-4.3,3.9-11.5,5.8-18.2,5.8c-13.4,0-23.8-8.7-23.8-22.9C903.1,92.3,912.7,82.1,926.2,82.1z M917.3,100.3h17.9
		c-0.4-3.1-2.6-7.5-9-7.5C920.2,92.8,917.9,97.2,917.3,100.3z"/>
	<path class="st3" d="M955.3,126.7V83.2h13.9v5.5c2.9-3.5,8.4-6.6,13.6-6.6v13.4c-0.8-0.3-2-0.5-3.4-0.5c-3.6,0-8.4,1.5-10.2,4v27.5
		L955.3,126.7L955.3,126.7z"/>
	<path class="st3" d="M508.1,186.7l-5.1-18.8l-5.1,18.8h-3.1l-6.6-23.4h3.2l5.2,19.5l5.4-19.5h2.4l5.4,19.5l5.2-19.5h3.2l-6.7,23.4
		H508.1z"/>
	<path class="st3" d="M520.5,165.1c0-1,0.8-1.8,1.8-1.8c1,0,1.8,0.8,1.8,1.8s-0.8,1.8-1.8,1.8C521.3,166.9,520.5,166.1,520.5,165.1z
		 M521,186.7v-16.9h2.6v16.9H521z"/>
	<path class="st3" d="M529.4,183.1v-11.1h-2.8v-2.3h2.8v-4.6h2.6v4.6h3.4v2.3H532v10.5c0,1.3,0.6,2.2,1.7,2.2c0.7,0,1.4-0.3,1.8-0.7
		l0.8,2c-0.7,0.6-1.6,1.1-3.2,1.1C530.7,187.1,529.4,185.7,529.4,183.1z"/>
	<path class="st3" d="M550.6,186.7v-11.1c0-3-1.5-3.9-3.8-3.9c-2,0-4,1.3-5,2.6v12.4h-2.6v-23.4h2.6v8.9c1.2-1.4,3.5-2.9,6.1-2.9
		c3.5,0,5.4,1.7,5.4,5.4v11.9H550.6z"/>
	<path class="st3" d="M567.4,182.6c1.1,1.3,3.2,2.4,5.6,2.4c2.6,0,4-1.2,4-2.8c0-1.9-2.1-2.5-4.3-3c-2.9-0.7-6.1-1.4-6.1-4.9
		c0-2.6,2.3-4.9,6.3-4.9c2.9,0,4.9,1.1,6.3,2.5l-1.2,1.8c-1-1.2-2.9-2.1-5-2.1c-2.3,0-3.8,1-3.8,2.5c0,1.6,1.9,2.2,4.1,2.7
		c2.9,0.7,6.3,1.5,6.3,5.2c0,2.8-2.3,5.1-6.7,5.1c-2.8,0-5.1-0.8-6.8-2.7L567.4,182.6z"/>
	<path class="st3" d="M595.2,186.7v-11.1c0-3-1.5-3.9-3.8-3.9c-2,0-4,1.3-5,2.6v12.4h-2.6v-23.4h2.6v8.9c1.2-1.4,3.5-2.9,6.1-2.9
		c3.5,0,5.4,1.7,5.4,5.4v11.9H595.2z"/>
	<path class="st3" d="M613.7,186.7v-1.9c-1.4,1.5-3.3,2.3-5.6,2.3c-2.9,0-5.9-1.9-5.9-5.6c0-3.8,3-5.6,5.9-5.6
		c2.3,0,4.2,0.7,5.6,2.3v-3c0-2.3-1.8-3.6-4.3-3.6c-2,0-3.7,0.7-5.2,2.4l-1.2-1.8c1.8-1.9,4-2.8,6.8-2.8c3.6,0,6.5,1.6,6.5,5.7v11.6
		L613.7,186.7L613.7,186.7z M613.7,179.9c-1-1.4-2.8-2.1-4.7-2.1c-2.5,0-4.2,1.5-4.2,3.7c0,2.1,1.7,3.7,4.2,3.7
		c1.8,0,3.6-0.7,4.7-2.1V179.9z"/>
	<path class="st3" d="M621.6,186.7v-16.9h2.6v2.7c1.4-1.8,3.3-3.1,5.6-3.1v2.7c-0.3-0.1-0.6-0.1-1-0.1c-1.6,0-3.8,1.3-4.6,2.7v12
		L621.6,186.7L621.6,186.7z"/>
	<path class="st3" d="M640.5,169.4c5.1,0,8.1,4,8.1,9.1v0.7h-13.7c0.2,3.2,2.4,5.9,6.1,5.9c1.9,0,3.9-0.8,5.2-2.1l1.3,1.7
		c-1.7,1.7-4,2.6-6.7,2.6c-5,0-8.6-3.6-8.6-8.9C632.1,173.3,635.6,169.4,640.5,169.4z M634.9,177.2H646c0-2.5-1.7-5.6-5.6-5.6
		C636.8,171.5,635,174.6,634.9,177.2z"/>
	<path class="st3" d="M662.7,186.7l-5.1-6.9l-5.1,6.9h-3l6.5-8.7l-6.1-8.2h3l4.7,6.4l4.7-6.4h3l-6.1,8.2l6.5,8.7H662.7z"/>
	<path class="st3" d="M677.6,182.6c1.1,1.3,3.2,2.4,5.6,2.4c2.6,0,4-1.2,4-2.8c0-1.9-2.1-2.5-4.3-3c-2.9-0.7-6.1-1.4-6.1-4.9
		c0-2.6,2.3-4.9,6.3-4.9c2.9,0,4.9,1.1,6.3,2.5l-1.2,1.8c-1-1.2-2.9-2.1-5-2.1c-2.3,0-3.8,1-3.8,2.5c0,1.6,1.9,2.2,4.1,2.7
		c2.9,0.7,6.3,1.5,6.3,5.2c0,2.8-2.3,5.1-6.7,5.1c-2.8,0-5.1-0.8-6.8-2.7L677.6,182.6z"/>
	<path class="st3" d="M705.4,186.7v-2.4c-1.3,1.5-3.5,2.8-6,2.8c-3.5,0-5.4-1.7-5.4-5.4v-11.9h2.6v11.1c0,3,1.5,3.9,3.8,3.9
		c2.1,0,4-1.2,5-2.6v-12.4h2.6v16.9L705.4,186.7L705.4,186.7z"/>
	<path class="st3" d="M715.9,193.1h-2.6v-23.4h2.6v2.5c1.2-1.7,3.3-2.9,5.7-2.9c4.5,0,7.5,3.4,7.5,8.9c0,5.5-3.1,8.9-7.5,8.9
		c-2.3,0-4.3-1.1-5.7-3V193.1z M721,171.7c-2.1,0-4.1,1.2-5,2.7v7.6c0.9,1.5,3,2.7,5,2.7c3.4,0,5.4-2.8,5.4-6.5
		S724.3,171.7,721,171.7z"/>
	<path class="st3" d="M736,193.1h-2.6v-23.4h2.6v2.5c1.2-1.7,3.3-2.9,5.7-2.9c4.5,0,7.5,3.4,7.5,8.9c0,5.5-3.1,8.9-7.5,8.9
		c-2.3,0-4.3-1.1-5.7-3V193.1z M741,171.7c-2.1,0-4.1,1.2-5,2.7v7.6c0.9,1.5,3,2.7,5,2.7c3.4,0,5.4-2.8,5.4-6.5
		S744.4,171.7,741,171.7z"/>
	<path class="st3" d="M752.5,178.2c0-4.9,3.2-8.9,8.4-8.9s8.4,4,8.4,8.9s-3.2,8.9-8.4,8.9S752.5,183.1,752.5,178.2z M766.5,178.2
		c0-3.4-2-6.5-5.6-6.5s-5.6,3.1-5.6,6.5c0,3.5,2,6.5,5.6,6.5S766.5,181.7,766.5,178.2z"/>
	<path class="st3" d="M773.5,186.7v-16.9h2.6v2.7c1.4-1.8,3.3-3.1,5.6-3.1v2.7c-0.3-0.1-0.6-0.1-1.1-0.1c-1.6,0-3.8,1.3-4.6,2.7v12
		L773.5,186.7L773.5,186.7z"/>
	<path class="st3" d="M785.6,183.1v-11.1h-2.8v-2.3h2.8v-4.6h2.6v4.6h3.4v2.3h-3.4v10.5c0,1.3,0.6,2.2,1.7,2.2
		c0.7,0,1.4-0.3,1.8-0.7l0.8,2c-0.7,0.6-1.6,1.1-3.2,1.1C786.8,187.1,785.6,185.7,785.6,183.1z"/>
</g>
</svg>
