<?xml version="1.0" encoding="utf-8"?>
<!-- Generator: Adobe Illustrator 26.0.3, SVG Export Plug-In . SVG Version: 6.00 Build 0)  -->
<svg version="1.1" id="Warstwa_1" xmlns="http://www.w3.org/2000/svg" xmlns:xlink="http://www.w3.org/1999/xlink" x="0px" y="0px"
	 viewBox="0 0 1280 640" style="enable-background:new 0 0 1280 640;" xml:space="preserve">
<style type="text/css">
	.st0{display:none;fill:#3A3A3A;}
	.st1{display:none;}
	.st2{display:inline;fill:#B85557;}
	.st3{fill:#C9C8C8;}
</style>
<rect x="0.02" y="0" class="st0" width="1279.98" height="640"/>
<g id="Border" class="st1">
	<rect x="0.02" y="0" class="st2" width="79.98" height="640"/>
	<rect x="1200.02" class="st2" width="79.98" height="640"/>
	
		<rect x="600.02" y="-520.02" transform="matrix(-1.836970e-16 1 -1 -1.836970e-16 680.0024 -600.0165)" class="st2" width="79.98" height="1120.02"/>
	
		<rect x="600.02" y="40" transform="matrix(-1.836970e-16 1 -1 -1.836970e-16 1240.0212 -39.9977)" class="st2" width="79.98" height="1120.02"/>
</g>
<g>
	<path class="st3" d="M305.35,299.95c4.32,4.32,10.98,7.92,19.17,7.92c5.31,0,8.55-2.25,8.55-5.13c0-3.42-3.87-4.77-10.26-6.12
		c-9.9-1.98-23.76-4.5-23.76-18.72c0-10.08,8.55-18.81,23.94-18.81c9.63,0,18,2.88,24.39,8.37l-8.46,11.07
		c-5.04-4.14-11.61-6.21-16.92-6.21c-5.13,0-7.11,2.07-7.11,4.68c0,3.15,3.69,4.23,10.35,5.49c9.9,2.07,23.58,4.95,23.58,18.54
		c0,12.06-8.91,20.07-25.02,20.07c-12.15,0-20.61-3.78-26.64-9.54L305.35,299.95z"/>
	<path class="st3" d="M354.67,263.14c0-4.41,3.51-7.92,7.92-7.92c4.41,0,7.92,3.51,7.92,7.92c0,4.41-3.51,7.92-7.92,7.92
		C358.18,271.06,354.67,267.55,354.67,263.14z M355.66,320.02v-43.47h13.86v43.47H355.66z"/>
	<path class="st3" d="M434.41,320.02v-26.46c0-3.33-1.62-5.85-5.76-5.85c-3.78,0-6.48,2.43-7.83,4.23v28.08h-13.86v-26.46
		c0-3.33-1.53-5.85-5.76-5.85c-3.69,0-6.3,2.43-7.74,4.23v28.08H379.6v-43.47h13.86v5.31c1.89-2.52,7.47-6.39,14.31-6.39
		c6.21,0,10.53,2.61,12.33,7.74c2.52-3.78,8.19-7.74,15.03-7.74c8.01,0,13.05,4.14,13.05,13.05v31.5H434.41z"/>
	<path class="st3" d="M472.21,336.58h-13.86v-60.03h13.86v5.04c3.42-4.14,7.92-6.12,12.87-6.12c10.89,0,19.08,8.1,19.08,22.77
		c0,14.76-8.19,22.86-19.08,22.86c-4.86,0-9.27-1.89-12.87-6.21V336.58z M480.49,287.71c-2.97,0-6.57,1.62-8.28,3.96v13.23
		c1.71,2.25,5.31,3.96,8.28,3.96c5.4,0,9.54-4.05,9.54-10.62C490.03,291.76,485.89,287.71,480.49,287.71z"/>
	<path class="st3" d="M511.45,320.02v-60.03h13.86v60.03H511.45z"/>
	<path class="st3" d="M555.64,275.47c12.87,0,22.23,9.45,22.23,24.21v2.97h-30.96c0.81,4.05,4.59,7.74,11.07,7.74
		c3.87,0,8.19-1.53,10.62-3.69l5.85,8.64c-4.32,3.87-11.52,5.76-18.18,5.76c-13.41,0-23.76-8.73-23.76-22.86
		C532.51,285.64,542.05,275.47,555.64,275.47z M546.73,293.65h17.91c-0.36-3.06-2.61-7.47-9-7.47
		C549.61,286.18,547.27,290.5,546.73,293.65z"/>
	<path class="st3" d="M608.1,259.99h15.75v35.19c0,7.11,3.78,12.24,12.15,12.24c8.28,0,12.06-5.13,12.06-12.24v-35.19h15.75v35.64
		c0,14.94-8.55,25.47-27.81,25.47c-19.26,0-27.9-10.62-27.9-25.38V259.99z"/>
	<path class="st3" d="M688.11,336.58h-13.86v-60.03h13.86v5.04c3.42-4.14,7.92-6.12,12.87-6.12c10.89,0,19.08,8.1,19.08,22.77
		c0,14.76-8.19,22.86-19.08,22.86c-4.86,0-9.27-1.89-12.87-6.21V336.58z M696.39,287.71c-2.97,0-6.57,1.62-8.28,3.96v13.23
		c1.71,2.25,5.31,3.96,8.28,3.96c5.4,0,9.54-4.05,9.54-10.62C705.93,291.76,701.79,287.71,696.39,287.71z"/>
	<path class="st3" d="M727.35,320.02v-60.03h13.86v60.03H727.35z"/>
	<path class="st3" d="M748.41,298.24c0-12.24,8.91-22.77,23.67-22.77c14.94,0,23.76,10.53,23.76,22.77
		c0,12.24-8.82,22.86-23.76,22.86C757.32,321.1,748.41,310.48,748.41,298.24z M781.62,298.24c0-5.76-3.42-10.53-9.54-10.53
		c-6.03,0-9.36,4.77-9.36,10.53c0,5.85,3.33,10.62,9.36,10.62C778.2,308.86,781.62,304.09,781.62,298.24z"/>
	<path class="st3" d="M828.78,320.02v-4.32c-2.7,3.24-7.92,5.4-13.5,5.4c-6.66,0-14.94-4.5-14.94-14.31
		c0-10.53,8.28-13.68,14.94-13.68c5.76,0,10.89,1.8,13.5,5.04v-5.49c0-3.78-3.24-6.3-8.82-6.3c-4.32,0-8.82,1.62-12.33,4.59
		l-4.95-8.73c5.58-4.77,13.05-6.75,19.71-6.75c10.44,0,20.25,3.87,20.25,17.37v27.18H828.78z M828.78,304.99
		c-1.44-1.98-4.68-3.06-7.74-3.06c-3.69,0-6.93,1.62-6.93,5.04s3.24,5.04,6.93,5.04c3.06,0,6.3-1.08,7.74-3.15V304.99z"/>
	<path class="st3" d="M881.97,320.02v-5.04c-3.6,4.14-8.01,6.12-12.87,6.12c-10.71,0-19.26-8.1-19.26-22.86
		c0-14.22,8.37-22.77,19.26-22.77c4.77,0,9.36,1.89,12.87,6.21v-21.69h13.77v60.03H881.97z M881.97,291.58
		c-1.8-2.34-5.4-3.87-8.37-3.87c-5.49,0-9.54,4.05-9.54,10.53c0,6.48,4.05,10.62,9.54,10.62c2.97,0,6.57-1.62,8.37-3.96V291.58z"/>
	<path class="st3" d="M926.16,275.47c12.87,0,22.23,9.45,22.23,24.21v2.97h-30.96c0.81,4.05,4.59,7.74,11.07,7.74
		c3.87,0,8.19-1.53,10.62-3.69l5.85,8.64c-4.32,3.87-11.52,5.76-18.18,5.76c-13.41,0-23.76-8.73-23.76-22.86
		C903.03,285.64,912.57,275.47,926.16,275.47z M917.25,293.65h17.91c-0.36-3.06-2.61-7.47-9-7.47
		C920.13,286.18,917.79,290.5,917.25,293.65z"/>
	<path class="st3" d="M955.23,320.02v-43.47h13.86v5.49c2.88-3.51,8.37-6.57,13.59-6.57v13.41c-0.81-0.27-1.98-0.45-3.42-0.45
		c-3.6,0-8.37,1.53-10.17,4.05v27.54H955.23z"/>
	<path class="st3" d="M507.98,380.02l-5.15-18.83l-5.15,18.83h-3.15l-6.65-23.35h3.22l5.18,19.46l5.36-19.46h2.42l5.36,19.46
		l5.15-19.46h3.22l-6.65,23.35H507.98z"/>
	<path class="st3" d="M520.47,358.49c0-0.98,0.8-1.75,1.75-1.75c0.98,0,1.79,0.77,1.79,1.75s-0.81,1.79-1.79,1.79
		C521.27,360.28,520.47,359.47,520.47,358.49z M520.92,380.02v-16.91h2.62v16.91H520.92z"/>
	<path class="st3" d="M529.32,376.48v-11.06h-2.8v-2.31h2.8v-4.62h2.62v4.62h3.43v2.31h-3.43v10.5c0,1.26,0.56,2.17,1.72,2.17
		c0.74,0,1.44-0.32,1.79-0.7l0.77,1.96c-0.67,0.63-1.61,1.08-3.15,1.08C530.58,380.44,529.32,379,529.32,376.48z"/>
	<path class="st3" d="M550.53,380.02v-11.13c0-2.98-1.54-3.85-3.82-3.85c-2.03,0-3.99,1.26-5.01,2.62v12.36h-2.62v-23.35h2.62v8.89
		c1.19-1.4,3.5-2.87,6.06-2.87c3.54,0,5.39,1.72,5.39,5.39v11.94H550.53z"/>
	<path class="st3" d="M567.33,375.89c1.12,1.3,3.25,2.42,5.57,2.42c2.59,0,3.99-1.16,3.99-2.8c0-1.86-2.06-2.45-4.34-3.01
		c-2.87-0.67-6.13-1.44-6.13-4.94c0-2.63,2.27-4.87,6.3-4.87c2.87,0,4.9,1.08,6.27,2.45l-1.23,1.82c-1.02-1.22-2.87-2.13-5.04-2.13
		c-2.31,0-3.75,1.05-3.75,2.55c0,1.65,1.93,2.17,4.13,2.7c2.94,0.67,6.34,1.51,6.34,5.25c0,2.83-2.27,5.11-6.65,5.11
		c-2.77,0-5.11-0.84-6.83-2.66L567.33,375.89z"/>
	<path class="st3" d="M595.16,380.02v-11.13c0-2.98-1.54-3.85-3.82-3.85c-2.03,0-3.99,1.26-5.01,2.62v12.36h-2.62v-23.35h2.62v8.89
		c1.19-1.4,3.5-2.87,6.06-2.87c3.54,0,5.39,1.72,5.39,5.39v11.94H595.16z"/>
	<path class="st3" d="M613.6,380.02v-1.92c-1.4,1.54-3.33,2.34-5.6,2.34c-2.87,0-5.92-1.92-5.92-5.6c0-3.78,3.05-5.57,5.92-5.57
		c2.31,0,4.24,0.74,5.6,2.31v-3.05c0-2.28-1.82-3.57-4.27-3.57c-2.03,0-3.68,0.74-5.18,2.35l-1.23-1.82c1.82-1.89,3.99-2.8,6.76-2.8
		c3.57,0,6.55,1.61,6.55,5.71v11.62H613.6z M613.6,373.26c-1.02-1.4-2.8-2.1-4.66-2.1c-2.45,0-4.17,1.54-4.17,3.71
		c0,2.13,1.72,3.68,4.17,3.68c1.85,0,3.64-0.7,4.66-2.1V373.26z"/>
	<path class="st3" d="M621.48,380.02v-16.91h2.62v2.73c1.37-1.79,3.33-3.08,5.64-3.08v2.7c-0.31-0.07-0.63-0.11-1.05-0.11
		c-1.61,0-3.82,1.33-4.59,2.7v11.97H621.48z"/>
	<path class="st3" d="M640.38,362.69c5.11,0,8.12,3.99,8.12,9.07v0.67h-13.69c0.21,3.19,2.45,5.85,6.09,5.85
		c1.93,0,3.89-0.77,5.22-2.14l1.26,1.72c-1.68,1.68-3.96,2.59-6.72,2.59c-5.01,0-8.61-3.61-8.61-8.89
		C632.05,366.65,635.55,362.69,640.38,362.69z M634.81,370.5h11.1c-0.04-2.52-1.71-5.63-5.57-5.63
		C636.74,364.86,634.95,367.91,634.81,370.5z"/>
	<path class="st3" d="M662.57,380.02l-5.08-6.93l-5.08,6.93h-3.01l6.48-8.68l-6.12-8.23h3.04l4.69,6.44l4.69-6.44h3.04l-6.12,8.23
		l6.51,8.68H662.57z"/>
	<path class="st3" d="M677.55,375.89c1.12,1.3,3.25,2.42,5.57,2.42c2.59,0,3.99-1.16,3.99-2.8c0-1.86-2.07-2.45-4.34-3.01
		c-2.87-0.67-6.12-1.44-6.12-4.94c0-2.63,2.28-4.87,6.3-4.87c2.87,0,4.9,1.08,6.27,2.45l-1.23,1.82c-1.01-1.22-2.87-2.13-5.04-2.13
		c-2.31,0-3.75,1.05-3.75,2.55c0,1.65,1.93,2.17,4.13,2.7c2.94,0.67,6.34,1.51,6.34,5.25c0,2.83-2.28,5.11-6.65,5.11
		c-2.76,0-5.11-0.84-6.83-2.66L677.55,375.89z"/>
	<path class="st3" d="M705.34,380.02v-2.38c-1.29,1.47-3.5,2.8-6.02,2.8c-3.54,0-5.39-1.71-5.39-5.39v-11.94h2.63v11.13
		c0,2.97,1.5,3.85,3.78,3.85c2.06,0,4.03-1.19,5-2.56v-12.43h2.63v16.91H705.34z"/>
	<path class="st3" d="M715.84,386.46h-2.63v-23.35h2.63v2.52c1.22-1.71,3.33-2.94,5.71-2.94c4.45,0,7.53,3.36,7.53,8.86
		c0,5.46-3.08,8.89-7.53,8.89c-2.31,0-4.34-1.08-5.71-2.98V386.46z M720.88,365.04c-2.07,0-4.13,1.22-5.04,2.7v7.63
		c0.91,1.47,2.97,2.73,5.04,2.73c3.4,0,5.43-2.8,5.43-6.55S724.27,365.04,720.88,365.04z"/>
	<path class="st3" d="M735.93,386.46h-2.63v-23.35h2.63v2.52c1.22-1.71,3.33-2.94,5.71-2.94c4.45,0,7.53,3.36,7.53,8.86
		c0,5.46-3.08,8.89-7.53,8.89c-2.31,0-4.34-1.08-5.71-2.98V386.46z M740.97,365.04c-2.07,0-4.13,1.22-5.04,2.7v7.63
		c0.91,1.47,2.97,2.73,5.04,2.73c3.4,0,5.43-2.8,5.43-6.55S744.36,365.04,740.97,365.04z"/>
	<path class="st3" d="M752.41,371.55c0-4.9,3.22-8.86,8.37-8.86s8.37,3.96,8.37,8.86s-3.22,8.89-8.37,8.89
		S752.41,376.45,752.41,371.55z M766.38,371.55c0-3.43-2-6.51-5.6-6.51s-5.64,3.08-5.64,6.51c0,3.46,2.03,6.55,5.64,6.55
		S766.38,375.01,766.38,371.55z"/>
	<path class="st3" d="M773.41,380.02v-16.91h2.63v2.73c1.36-1.79,3.33-3.08,5.63-3.08v2.7c-0.31-0.07-0.63-0.11-1.05-0.11
		c-1.61,0-3.82,1.33-4.58,2.7v11.97H773.41z"/>
	<path class="st3" d="M785.48,376.48v-11.06h-2.8v-2.31h2.8v-4.62h2.62v4.62h3.43v2.31h-3.43v10.5c0,1.26,0.56,2.17,1.72,2.17
		c0.73,0,1.43-0.32,1.79-0.7l0.77,1.96c-0.67,0.63-1.61,1.08-3.15,1.08C786.74,380.44,785.48,379,785.48,376.48z"/>
</g>
</svg>
